<svg xmlns="http://www.w3.org/2000/svg" xmlns:xlink="http://www.w3.org/1999/xlink" version="1.2" width="141.42mm" height="100mm" viewBox="0 0 141.42 100" stroke="none" fill="#000000" stroke-width="0.3" font-size="3.88">
<defs>
  <marker id="arrow" markerWidth="15" markerHeight="7" refX="5" refY="3.5" orient="auto" markerUnits="strokeWidth">
    <path d="M0,0 L15,3.5 L0,7 z" stroke="context-stroke" fill="context-stroke"></path>
  </marker>
</defs>
<g stroke-width="0.42" fill="#000000" fill-opacity="0.000" stroke="#D3D3D3" id="img-ccf841cf-1">
  <g transform="translate(20.84,13.78)">
    <path fill="none" d="M-2.84,-1.18 L2.84,1.18 " class="primitive"></path>
  </g>
  <g transform="translate(102.41,8.67)">
    <path fill="none" d="M-10.3,0.28 L10.3,-0.28 " class="primitive"></path>
  </g>
  <g transform="translate(113.35,33.52)">
    <path fill="none" d="M1.23,-0.36 L-1.23,0.36 " class="primitive"></path>
  </g>
  <g transform="translate(74.44,55.85)">
    <path fill="none" d="M-1.97,4.1 L1.97,-4.1 " class="primitive"></path>
  </g>
  <g transform="translate(36.49,32.82)">
    <path fill="none" d="M-6.06,-2.4 L6.06,2.4 " class="primitive"></path>
  </g>
  <g transform="translate(20.96,80.68)">
    <path fill="none" d="M0.37,-0.09 L-0.37,0.09 " class="primitive"></path>
  </g>
  <g transform="translate(110.74,37.3)">
    <path fill="none" d="M-0.27,-1.38 L0.27,1.38 " class="primitive"></path>
  </g>
  <g transform="translate(17.81,68.36)">
    <path fill="none" d="M4.19,10.52 L-4.19,-10.52 " class="primitive"></path>
  </g>
  <g transform="translate(14.45,22.79)">
    <path fill="none" d="M-1.52,9.48 L1.52,-9.48 " class="primitive"></path>
  </g>
  <g transform="translate(75.95,41.82)">
    <path fill="none" d="M6.47,-2.32 L-6.47,2.32 " class="primitive"></path>
  </g>
  <g transform="translate(109.71,89.16)">
    <path fill="none" d="M7.14,0.69 L-7.14,-0.69 " class="primitive"></path>
  </g>
  <g transform="translate(45.94,33.76)">
    <path fill="none" d="M-0.63,0.87 L0.63,-0.87 " class="primitive"></path>
  </g>
  <g transform="translate(119.25,88.34)">
    <path fill="none" d="M0.05,-0.26 L-0.05,0.26 " class="primitive"></path>
  </g>
  <g transform="translate(23.41,87.36)">
    <path fill="none" d="M4.43,-3.24 L-4.43,3.24 " class="primitive"></path>
  </g>
  <g transform="translate(54.9,31.06)">
    <path fill="none" d="M-0.85,0.1 L0.85,-0.1 " class="primitive"></path>
  </g>
  <g transform="translate(113.44,41.77)">
    <path fill="none" d="M-0.73,-0.55 L0.73,0.55 " class="primitive"></path>
  </g>
  <g transform="translate(62.17,28.35)">
    <path fill="none" d="M-2.71,1.48 L2.71,-1.48 " class="primitive"></path>
  </g>
  <g transform="translate(122.22,21.2)">
    <path fill="none" d="M-6.63,-11.51 L6.63,11.51 " class="primitive"></path>
  </g>
  <g transform="translate(32.38,73.79)">
    <path fill="none" d="M2.61,-7.83 L-2.61,7.83 " class="primitive"></path>
  </g>
  <g transform="translate(75.1,14.33)">
    <path fill="none" d="M-13.07,4.66 L13.07,-4.66 " class="primitive"></path>
  </g>
  <g transform="translate(19.14,47.71)">
    <path fill="none" d="M-2.51,-0.24 L2.51,0.24 " class="primitive"></path>
  </g>
  <g transform="translate(53.15,65.06)">
    <path fill="none" d="M0.78,-0.77 L-0.78,0.77 " class="primitive"></path>
  </g>
  <g transform="translate(52,57.82)">
    <path fill="none" d="M-2.34,-3.9 L2.34,3.9 " class="primitive"></path>
  </g>
  <g transform="translate(120.82,58.59)">
    <path fill="none" d="M-2.84,-4.26 L2.84,4.26 " class="primitive"></path>
  </g>
  <g transform="translate(15.57,85.39)">
    <path fill="none" d="M-2.69,3.07 L2.69,-3.07 " class="primitive"></path>
  </g>
  <g transform="translate(124.49,81.93)">
    <path fill="none" d="M3.67,-3.5 L-3.67,3.5 " class="primitive"></path>
  </g>
  <g transform="translate(93.12,87.87)">
    <path fill="none" d="M5.31,0.29 L-5.31,-0.29 " class="primitive"></path>
  </g>
  <g transform="translate(58.24,48.69)">
    <path fill="none" d="M7.59,-3.14 L-7.59,3.14 " class="primitive"></path>
  </g>
  <g transform="translate(126.64,35.52)">
    <path fill="none" d="M1.28,-0.61 L-1.28,0.61 " class="primitive"></path>
  </g>
  <g transform="translate(24.38,22.56)">
    <path fill="none" d="M-0.03,-0.08 L0.03,0.08 " class="primitive"></path>
  </g>
  <g transform="translate(79.04,64.33)">
    <path fill="none" d="M0.04,0.01 L-0.04,-0.01 " class="primitive"></path>
  </g>
  <g transform="translate(43.31,65.78)">
    <path fill="none" d="M5.81,0.93 L-5.81,-0.93 " class="primitive"></path>
  </g>
  <g transform="translate(64.5,21.93)">
    <path fill="none" d="M2.66,1.39 L-2.66,-1.39 " class="primitive"></path>
  </g>
  <g transform="translate(116.34,48.2)">
    <path fill="none" d="M-0.53,-3.33 L0.53,3.33 " class="primitive"></path>
  </g>
  <g transform="translate(83.1,83.42)">
    <path fill="none" d="M1.76,2.71 L-1.76,-2.71 " class="primitive"></path>
  </g>
  <g transform="translate(75.4,49.36)">
    <path fill="none" d="M0.08,0.04 L-0.08,-0.04 " class="primitive"></path>
  </g>
  <g transform="translate(74.4,62.62)">
    <path fill="none" d="M0.89,0.43 L-0.89,-0.43 " class="primitive"></path>
  </g>
  <g transform="translate(67.68,25.08)">
    <path fill="none" d="M0.25,-0.2 L-0.25,0.2 " class="primitive"></path>
  </g>
  <g transform="translate(79.76,70.72)">
    <path fill="none" d="M-0.98,4.48 L0.98,-4.48 " class="primitive"></path>
  </g>
  <g transform="translate(23.93,39.02)">
    <path fill="none" d="M9.5,4.46 L-9.5,-4.46 " class="primitive"></path>
  </g>
  <g transform="translate(126.97,70.72)">
    <path fill="none" d="M-1.89,-5.11 L1.89,5.11 " class="primitive"></path>
  </g>
  <g transform="translate(79.01,43.6)">
    <path fill="none" d="M-3.99,3.61 L3.99,-3.61 " class="primitive"></path>
  </g>
  <g transform="translate(120.07,34.78)">
    <path fill="none" d="M2,1.22 L-2,-1.22 " class="primitive"></path>
  </g>
  <g transform="translate(49.76,31.49)">
    <path fill="none" d="M-0.16,0.01 L0.16,-0.01 " class="primitive"></path>
  </g>
  <g transform="translate(26.77,26.89)">
    <path fill="none" d="M-0.97,-1.48 L0.97,1.48 " class="primitive"></path>
  </g>
  <g transform="translate(14.66,90.69)">
    <path fill="none" d="M1,0.34 L-1,-0.34 " class="primitive"></path>
  </g>
  <g transform="translate(79.46,78.01)">
    <path fill="none" d="M0.04,0.05 L-0.04,-0.05 " class="primitive"></path>
  </g>
  <g transform="translate(29.44,46.23)">
    <path fill="none" d="M-3.84,1.3 L3.84,-1.3 " class="primitive"></path>
  </g>
  <g transform="translate(13.81,51.84)">
    <path fill="none" d="M-0.52,3.12 L0.52,-3.12 " class="primitive"></path>
  </g>
  <g transform="translate(24.65,18.38)">
    <path fill="none" d="M0.38,-1.23 L-0.38,1.23 " class="primitive"></path>
  </g>
</g>
<g stroke-width="0.42" stroke="#D3D3D3" id="img-ccf841cf-2">
  <g transform="translate(22.72,14.57)">
    <path fill="none" d="M-0.17,-0.57 L0.95,0.4 -0.78,0.17 " class="primitive"></path>
  </g>
  <g transform="translate(111.61,8.42)">
    <path fill="none" d="M-0.58,-0.41 L1.11,-0.03 -0.53,0.44 " class="primitive"></path>
  </g>
  <g transform="translate(113.14,33.59)">
    <path fill="none" d="M0.74,0.24 L-1.02,0.3 0.28,-0.55 " class="primitive"></path>
  </g>
  <g transform="translate(76.04,52.5)">
    <path fill="none" d="M-0.75,0.23 L0.36,-0.74 0.39,0.51 " class="primitive"></path>
  </g>
  <g transform="translate(41.58,34.84)">
    <path fill="none" d="M-0.19,-0.56 L0.97,0.38 -0.78,0.18 " class="primitive"></path>
  </g>
  <g transform="translate(19.54,81.02)">
    <path fill="none" d="M-0.72,-0.28 L1.05,-0.25 -0.33,0.53 " class="primitive"></path>
  </g>
  <g transform="translate(110.86,37.9)">
    <path fill="none" d="M0.52,-0.45 L0.15,0.78 -0.67,-0.33 " class="primitive"></path>
  </g>
  <g transform="translate(13.92,58.6)">
    <path fill="none" d="M-0.43,0.49 L-0.3,-0.75 0.73,0.26 " class="primitive"></path>
  </g>
  <g transform="translate(15.85,14.1)">
    <path fill="none" d="M-0.66,0.34 L0.12,-0.78 0.54,0.44 " class="primitive"></path>
  </g>
  <g transform="translate(70.47,43.78)">
    <path fill="none" d="M0.77,0.2 L-0.99,0.35 0.22,-0.56 " class="primitive"></path>
  </g>
  <g transform="translate(103.67,88.58)">
    <path fill="none" d="M0.47,0.48 L-1.1,-0.11 0.63,-0.37 " class="primitive"></path>
  </g>
  <g transform="translate(46.07,33.58)">
    <path fill="none" d="M-0.79,0.15 L0.5,-0.7 0.29,0.54 " class="primitive"></path>
  </g>
  <g transform="translate(119.35,87.82)">
    <path fill="none" d="M0.67,-0.33 L-0.15,0.78 -0.52,-0.45 " class="primitive"></path>
  </g>
  <g transform="translate(19.75,90.04)">
    <path fill="none" d="M0.82,0.02 L-0.77,0.56 -0.05,-0.58 " class="primitive"></path>
  </g>
  <g transform="translate(54.66,31.09)">
    <path fill="none" d="M-0.64,-0.36 L1.09,-0.13 -0.45,0.49 " class="primitive"></path>
  </g>
  <g transform="translate(113.41,41.75)">
    <path fill="none" d="M0.07,-0.58 L0.75,0.57 -0.82,0 " class="primitive"></path>
  </g>
  <g transform="translate(64,27.35)">
    <path fill="none" d="M-0.81,-0.1 L0.88,-0.48 -0.07,0.58 " class="primitive"></path>
  </g>
  <g transform="translate(128.43,31.99)">
    <path fill="none" d="M0.35,-0.52 L0.42,0.73 -0.77,-0.2 " class="primitive"></path>
  </g>
  <g transform="translate(30.02,80.86)">
    <path fill="none" d="M0.72,-0.28 L-0.25,0.76 -0.46,-0.48 " class="primitive"></path>
  </g>
  <g transform="translate(87.18,10.03)">
    <path fill="none" d="M-0.77,-0.21 L0.99,-0.35 -0.22,0.56 " class="primitive"></path>
  </g>
  <g transform="translate(20.55,47.85)">
    <path fill="none" d="M-0.47,-0.48 L1.1,0.11 -0.63,0.37 " class="primitive"></path>
  </g>
  <g transform="translate(53.01,65.19)">
    <path fill="none" d="M0.81,-0.07 L-0.65,0.64 -0.17,-0.57 " class="primitive"></path>
  </g>
  <g transform="translate(53.9,61.01)">
    <path fill="none" d="M0.34,-0.53 L0.43,0.72 -0.77,-0.19 " class="primitive"></path>
  </g>
  <g transform="translate(123.19,62.14)">
    <path fill="none" d="M0.31,-0.54 L0.47,0.71 -0.78,-0.17 " class="primitive"></path>
  </g>
  <g transform="translate(17.68,82.98)">
    <path fill="none" d="M-0.81,0.11 L0.58,-0.67 0.22,0.56 " class="primitive"></path>
  </g>
  <g transform="translate(121.48,84.81)">
    <path fill="none" d="M0.82,-0.06 L-0.66,0.63 -0.16,-0.57 " class="primitive"></path>
  </g>
  <g transform="translate(88.91,87.64)">
    <path fill="none" d="M0.51,0.46 L-1.1,-0.06 0.6,-0.4 " class="primitive"></path>
  </g>
  <g transform="translate(51.6,51.43)">
    <path fill="none" d="M0.78,0.17 L-0.96,0.4 0.17,-0.57 " class="primitive"></path>
  </g>
  <g transform="translate(126.28,35.69)">
    <path fill="none" d="M0.8,0.13 L-0.92,0.44 0.12,-0.57 " class="primitive"></path>
  </g>
  <g transform="translate(24.14,21.88)">
    <path fill="none" d="M0.45,-0.49 L0.27,0.76 -0.72,-0.27 " class="primitive"></path>
  </g>
  <g transform="translate(80.06,64.56)">
    <path fill="none" d="M0.35,0.52 L-1.06,-0.23 0.71,-0.29 " class="primitive"></path>
  </g>
  <g transform="translate(38.58,65.02)">
    <path fill="none" d="M0.41,0.5 L-1.08,-0.17 0.67,-0.33 " class="primitive"></path>
  </g>
  <g transform="translate(62.74,21)">
    <path fill="none" d="M0.08,0.58 L-0.89,-0.47 0.8,-0.11 " class="primitive"></path>
  </g>
  <g transform="translate(116.75,50.75)">
    <path fill="none" d="M0.54,-0.44 L0.12,0.78 -0.66,-0.34 " class="primitive"></path>
  </g>
  <g transform="translate(81.79,81.42)">
    <path fill="none" d="M-0.32,0.53 L-0.46,-0.71 0.78,0.18 " class="primitive"></path>
  </g>
  <g transform="translate(76.17,49.82)">
    <path fill="none" d="M0.03,0.58 L-0.85,-0.51 0.81,-0.07 " class="primitive"></path>
  </g>
  <g transform="translate(74.43,62.63)">
    <path fill="none" d="M0.11,0.57 L-0.91,-0.45 0.8,-0.13 " class="primitive"></path>
  </g>
  <g transform="translate(66.68,25.86)">
    <path fill="none" d="M-0.82,0 L0.75,-0.58 0.07,0.58 " class="primitive"></path>
  </g>
  <g transform="translate(80.58,67.01)">
    <path fill="none" d="M-0.68,0.32 L0.17,-0.77 0.51,0.45 " class="primitive"></path>
  </g>
  <g transform="translate(15.35,34.99)">
    <path fill="none" d="M0.13,0.57 L-0.92,-0.43 0.8,-0.14 " class="primitive"></path>
  </g>
  <g transform="translate(128.58,75.07)">
    <path fill="none" d="M0.44,-0.49 L0.28,0.76 -0.73,-0.27 " class="primitive"></path>
  </g>
  <g transform="translate(82.31,40.6)">
    <path fill="none" d="M-0.82,0.05 L0.68,-0.62 0.14,0.57 " class="primitive"></path>
  </g>
  <g transform="translate(118.91,34.07)">
    <path fill="none" d="M0.02,0.58 L-0.84,-0.51 0.81,-0.07 " class="primitive"></path>
  </g>
  <g transform="translate(48.81,31.52)">
    <path fill="none" d="M-0.59,-0.41 L1.11,-0.04 -0.52,0.45 " class="primitive"></path>
  </g>
  <g transform="translate(27.28,27.66)">
    <path fill="none" d="M0.32,-0.53 L0.47,0.71 -0.78,-0.18 " class="primitive"></path>
  </g>
  <g transform="translate(14.66,90.69)">
    <path fill="none" d="M0.24,0.55 L-1,-0.34 0.76,-0.22 " class="primitive"></path>
  </g>
  <g transform="translate(79.94,78.66)">
    <path fill="none" d="M-0.28,0.54 L-0.51,-0.69 0.79,0.15 " class="primitive"></path>
  </g>
  <g transform="translate(32.28,45.27)">
    <path fill="none" d="M-0.76,-0.22 L1,-0.34 -0.24,0.55 " class="primitive"></path>
  </g>
  <g transform="translate(14.2,49.51)">
    <path fill="none" d="M-0.66,0.34 L0.13,-0.78 0.54,0.44 " class="primitive"></path>
  </g>
  <g transform="translate(24.51,18.85)">
    <path fill="none" d="M0.71,-0.29 L-0.23,0.77 -0.47,-0.47 " class="primitive"></path>
  </g>
</g>
<g font-size="4" stroke="#000000" stroke-opacity="0.000" fill="#000000" id="img-ccf841cf-3">
</g>
<g stroke-width="0" stroke="#000000" stroke-opacity="0.000" id="img-ccf841cf-4">
  <g transform="translate(16.21,11.85)" fill="#4B0082">
    <circle cx="0" cy="0" r="2" class="primitive"></circle>
  </g>
  <g transform="translate(90.03,9.01)" fill="#87CEEB">
    <circle cx="0" cy="0" r="2" class="primitive"></circle>
  </g>
  <g transform="translate(116.49,32.59)" fill="#87CEEB">
    <circle cx="0" cy="0" r="2" class="primitive"></circle>
  </g>
  <g transform="translate(71.8,61.34)" fill="#87CEEB">
    <circle cx="0" cy="0" r="2" class="primitive"></circle>
  </g>
  <g transform="translate(28.62,29.71)" fill="#87CEEB">
    <circle cx="0" cy="0" r="2" class="primitive"></circle>
  </g>
  <g transform="translate(19.36,81.06)" fill="#87CEEB">
    <circle cx="0" cy="0" r="2" class="primitive"></circle>
  </g>
  <g transform="translate(110.2,34.46)" fill="#87CEEB">
    <circle cx="0" cy="0" r="2" class="primitive"></circle>
  </g>
  <g transform="translate(22.56,80.3)" fill="#87CEEB">
    <circle cx="0" cy="0" r="2" class="primitive"></circle>
  </g>
  <g transform="translate(12.69,33.74)" fill="#87CEEB">
    <circle cx="0" cy="0" r="2" class="primitive"></circle>
  </g>
  <g transform="translate(84.28,38.83)" fill="#87CEEB">
    <circle cx="0" cy="0" r="2" class="primitive"></circle>
  </g>
  <g transform="translate(118.92,90.06)" fill="#87CEEB">
    <circle cx="0" cy="0" r="2" class="primitive"></circle>
  </g>
  <g transform="translate(44.37,35.94)" fill="#87CEEB">
    <circle cx="0" cy="0" r="2" class="primitive"></circle>
  </g>
  <g transform="translate(119.58,86.62)" fill="#87CEEB">
    <circle cx="0" cy="0" r="2" class="primitive"></circle>
  </g>
  <g transform="translate(29.29,83.06)" fill="#87CEEB">
    <circle cx="0" cy="0" r="2" class="primitive"></circle>
  </g>
  <g transform="translate(52,31.4)" fill="#87CEEB">
    <circle cx="0" cy="0" r="2" class="primitive"></circle>
  </g>
  <g transform="translate(111.29,40.14)" fill="#87CEEB">
    <circle cx="0" cy="0" r="2" class="primitive"></circle>
  </g>
  <g transform="translate(57.81,30.73)" fill="#87CEEB">
    <circle cx="0" cy="0" r="2" class="primitive"></circle>
  </g>
  <g transform="translate(114.8,8.33)" fill="#87CEEB">
    <circle cx="0" cy="0" r="2" class="primitive"></circle>
  </g>
  <g transform="translate(35.46,64.53)" fill="#87CEEB">
    <circle cx="0" cy="0" r="2" class="primitive"></circle>
  </g>
  <g transform="translate(60.17,19.66)" fill="#87CEEB">
    <circle cx="0" cy="0" r="2" class="primitive"></circle>
  </g>
  <g transform="translate(14.57,47.26)" fill="#87CEEB">
    <circle cx="0" cy="0" r="2" class="primitive"></circle>
  </g>
  <g transform="translate(55.15,63.08)" fill="#87CEEB">
    <circle cx="0" cy="0" r="2" class="primitive"></circle>
  </g>
  <g transform="translate(48.85,52.57)" fill="#87CEEB">
    <circle cx="0" cy="0" r="2" class="primitive"></circle>
  </g>
  <g transform="translate(117.1,52.99)" fill="#87CEEB">
    <circle cx="0" cy="0" r="2" class="primitive"></circle>
  </g>
  <g transform="translate(11.79,89.72)" fill="#87CEEB">
    <circle cx="0" cy="0" r="2" class="primitive"></circle>
  </g>
  <g transform="translate(129.39,77.25)" fill="#87CEEB">
    <circle cx="0" cy="0" r="2" class="primitive"></circle>
  </g>
  <g transform="translate(100.51,88.27)" fill="#87CEEB">
    <circle cx="0" cy="0" r="2" class="primitive"></circle>
  </g>
  <g transform="translate(67.62,44.8)" fill="#87CEEB">
    <circle cx="0" cy="0" r="2" class="primitive"></circle>
  </g>
  <g transform="translate(129.64,34.08)" fill="#87CEEB">
    <circle cx="0" cy="0" r="2" class="primitive"></circle>
  </g>
  <g transform="translate(23.84,21.06)" fill="#87CEEB">
    <circle cx="0" cy="0" r="2" class="primitive"></circle>
  </g>
  <g transform="translate(81.07,64.78)" fill="#87CEEB">
    <circle cx="0" cy="0" r="2" class="primitive"></circle>
  </g>
  <g transform="translate(51.15,67.03)" fill="#87CEEB">
    <circle cx="0" cy="0" r="2" class="primitive"></circle>
  </g>
  <g transform="translate(68.83,24.19)" fill="#87CEEB">
    <circle cx="0" cy="0" r="2" class="primitive"></circle>
  </g>
  <g transform="translate(115.59,43.41)" fill="#87CEEB">
    <circle cx="0" cy="0" r="2" class="primitive"></circle>
  </g>
  <g transform="translate(85.73,87.47)" fill="#87CEEB">
    <circle cx="0" cy="0" r="2" class="primitive"></circle>
  </g>
  <g transform="translate(77.07,50.36)" fill="#87CEEB">
    <circle cx="0" cy="0" r="2" class="primitive"></circle>
  </g>
  <g transform="translate(77.01,63.89)" fill="#87CEEB">
    <circle cx="0" cy="0" r="2" class="primitive"></circle>
  </g>
  <g transform="translate(66.53,25.98)" fill="#87CEEB">
    <circle cx="0" cy="0" r="2" class="primitive"></circle>
  </g>
  <g transform="translate(78.46,76.65)" fill="#87CEEB">
    <circle cx="0" cy="0" r="2" class="primitive"></circle>
  </g>
  <g transform="translate(35.16,44.3)" fill="#87CEEB">
    <circle cx="0" cy="0" r="2" class="primitive"></circle>
  </g>
  <g transform="translate(124.55,64.19)" fill="#87CEEB">
    <circle cx="0" cy="0" r="2" class="primitive"></circle>
  </g>
  <g transform="translate(73.74,48.37)" fill="#87CEEB">
    <circle cx="0" cy="0" r="2" class="primitive"></circle>
  </g>
  <g transform="translate(123.64,36.96)" fill="#87CEEB">
    <circle cx="0" cy="0" r="2" class="primitive"></circle>
  </g>
  <g transform="translate(47.52,31.57)" fill="#87CEEB">
    <circle cx="0" cy="0" r="2" class="primitive"></circle>
  </g>
  <g transform="translate(24.93,24.07)" fill="#87CEEB">
    <circle cx="0" cy="0" r="2" class="primitive"></circle>
  </g>
  <g transform="translate(17.54,91.67)" fill="#87CEEB">
    <circle cx="0" cy="0" r="2" class="primitive"></circle>
  </g>
  <g transform="translate(80.46,79.37)" fill="#87CEEB">
    <circle cx="0" cy="0" r="2" class="primitive"></circle>
  </g>
  <g transform="translate(23.72,48.16)" fill="#87CEEB">
    <circle cx="0" cy="0" r="2" class="primitive"></circle>
  </g>
  <g transform="translate(13.06,56.42)" fill="#87CEEB">
    <circle cx="0" cy="0" r="2" class="primitive"></circle>
  </g>
  <g transform="translate(25.47,15.71)" fill="#87CEEB">
    <circle cx="0" cy="0" r="2" class="primitive"></circle>
  </g>
</g>
<g font-size="2" stroke="#000000" stroke-opacity="0.000" fill="#000000" id="img-ccf841cf-5">
  <g transform="translate(16.21,11.85)">
    <g class="primitive">
      <text text-anchor="middle" dy="0.35em">0</text>
    </g>
  </g>
  <g transform="translate(90.03,9.01)">
    <g class="primitive">
      <text text-anchor="middle" dy="0.35em">1</text>
    </g>
  </g>
  <g transform="translate(116.49,32.59)">
    <g class="primitive">
      <text text-anchor="middle" dy="0.35em">2</text>
    </g>
  </g>
  <g transform="translate(71.8,61.34)">
    <g class="primitive">
      <text text-anchor="middle" dy="0.35em">3</text>
    </g>
  </g>
  <g transform="translate(28.62,29.71)">
    <g class="primitive">
      <text text-anchor="middle" dy="0.35em">4</text>
    </g>
  </g>
  <g transform="translate(19.36,81.06)">
    <g class="primitive">
      <text text-anchor="middle" dy="0.35em">5</text>
    </g>
  </g>
  <g transform="translate(110.2,34.46)">
    <g class="primitive">
      <text text-anchor="middle" dy="0.35em">6</text>
    </g>
  </g>
  <g transform="translate(22.56,80.3)">
    <g class="primitive">
      <text text-anchor="middle" dy="0.35em">7</text>
    </g>
  </g>
  <g transform="translate(12.69,33.74)">
    <g class="primitive">
      <text text-anchor="middle" dy="0.35em">8</text>
    </g>
  </g>
  <g transform="translate(84.28,38.83)">
    <g class="primitive">
      <text text-anchor="middle" dy="0.35em">9</text>
    </g>
  </g>
  <g transform="translate(118.92,90.06)">
    <g class="primitive">
      <text text-anchor="middle" dy="0.35em">10</text>
    </g>
  </g>
  <g transform="translate(44.37,35.94)">
    <g class="primitive">
      <text text-anchor="middle" dy="0.35em">11</text>
    </g>
  </g>
  <g transform="translate(119.58,86.62)">
    <g class="primitive">
      <text text-anchor="middle" dy="0.35em">12</text>
    </g>
  </g>
  <g transform="translate(29.29,83.06)">
    <g class="primitive">
      <text text-anchor="middle" dy="0.35em">13</text>
    </g>
  </g>
  <g transform="translate(52,31.4)">
    <g class="primitive">
      <text text-anchor="middle" dy="0.35em">14</text>
    </g>
  </g>
  <g transform="translate(111.29,40.14)">
    <g class="primitive">
      <text text-anchor="middle" dy="0.35em">15</text>
    </g>
  </g>
  <g transform="translate(57.81,30.73)">
    <g class="primitive">
      <text text-anchor="middle" dy="0.35em">16</text>
    </g>
  </g>
  <g transform="translate(114.8,8.33)">
    <g class="primitive">
      <text text-anchor="middle" dy="0.35em">17</text>
    </g>
  </g>
  <g transform="translate(35.46,64.53)">
    <g class="primitive">
      <text text-anchor="middle" dy="0.35em">18</text>
    </g>
  </g>
  <g transform="translate(60.17,19.66)">
    <g class="primitive">
      <text text-anchor="middle" dy="0.35em">19</text>
    </g>
  </g>
  <g transform="translate(14.57,47.26)">
    <g class="primitive">
      <text text-anchor="middle" dy="0.35em">20</text>
    </g>
  </g>
  <g transform="translate(55.15,63.08)">
    <g class="primitive">
      <text text-anchor="middle" dy="0.35em">21</text>
    </g>
  </g>
  <g transform="translate(48.85,52.57)">
    <g class="primitive">
      <text text-anchor="middle" dy="0.35em">22</text>
    </g>
  </g>
  <g transform="translate(117.1,52.99)">
    <g class="primitive">
      <text text-anchor="middle" dy="0.35em">23</text>
    </g>
  </g>
  <g transform="translate(11.79,89.72)">
    <g class="primitive">
      <text text-anchor="middle" dy="0.35em">24</text>
    </g>
  </g>
  <g transform="translate(129.39,77.25)">
    <g class="primitive">
      <text text-anchor="middle" dy="0.35em">25</text>
    </g>
  </g>
  <g transform="translate(100.51,88.27)">
    <g class="primitive">
      <text text-anchor="middle" dy="0.35em">26</text>
    </g>
  </g>
  <g transform="translate(67.62,44.8)">
    <g class="primitive">
      <text text-anchor="middle" dy="0.35em">27</text>
    </g>
  </g>
  <g transform="translate(129.64,34.08)">
    <g class="primitive">
      <text text-anchor="middle" dy="0.35em">28</text>
    </g>
  </g>
  <g transform="translate(23.84,21.06)">
    <g class="primitive">
      <text text-anchor="middle" dy="0.35em">29</text>
    </g>
  </g>
  <g transform="translate(81.07,64.78)">
    <g class="primitive">
      <text text-anchor="middle" dy="0.35em">30</text>
    </g>
  </g>
  <g transform="translate(51.15,67.03)">
    <g class="primitive">
      <text text-anchor="middle" dy="0.35em">31</text>
    </g>
  </g>
  <g transform="translate(68.83,24.19)">
    <g class="primitive">
      <text text-anchor="middle" dy="0.35em">32</text>
    </g>
  </g>
  <g transform="translate(115.59,43.41)">
    <g class="primitive">
      <text text-anchor="middle" dy="0.35em">33</text>
    </g>
  </g>
  <g transform="translate(85.73,87.47)">
    <g class="primitive">
      <text text-anchor="middle" dy="0.35em">34</text>
    </g>
  </g>
  <g transform="translate(77.07,50.36)">
    <g class="primitive">
      <text text-anchor="middle" dy="0.35em">35</text>
    </g>
  </g>
  <g transform="translate(77.01,63.89)">
    <g class="primitive">
      <text text-anchor="middle" dy="0.35em">36</text>
    </g>
  </g>
  <g transform="translate(66.53,25.98)">
    <g class="primitive">
      <text text-anchor="middle" dy="0.35em">37</text>
    </g>
  </g>
  <g transform="translate(78.46,76.65)">
    <g class="primitive">
      <text text-anchor="middle" dy="0.35em">38</text>
    </g>
  </g>
  <g transform="translate(35.16,44.3)">
    <g class="primitive">
      <text text-anchor="middle" dy="0.35em">39</text>
    </g>
  </g>
  <g transform="translate(124.55,64.19)">
    <g class="primitive">
      <text text-anchor="middle" dy="0.35em">40</text>
    </g>
  </g>
  <g transform="translate(73.74,48.37)">
    <g class="primitive">
      <text text-anchor="middle" dy="0.35em">41</text>
    </g>
  </g>
  <g transform="translate(123.64,36.96)">
    <g class="primitive">
      <text text-anchor="middle" dy="0.35em">42</text>
    </g>
  </g>
  <g transform="translate(47.52,31.57)">
    <g class="primitive">
      <text text-anchor="middle" dy="0.35em">43</text>
    </g>
  </g>
  <g transform="translate(24.93,24.07)">
    <g class="primitive">
      <text text-anchor="middle" dy="0.35em">44</text>
    </g>
  </g>
  <g transform="translate(17.54,91.67)">
    <g class="primitive">
      <text text-anchor="middle" dy="0.35em">45</text>
    </g>
  </g>
  <g transform="translate(80.46,79.37)">
    <g class="primitive">
      <text text-anchor="middle" dy="0.35em">46</text>
    </g>
  </g>
  <g transform="translate(23.72,48.16)">
    <g class="primitive">
      <text text-anchor="middle" dy="0.35em">47</text>
    </g>
  </g>
  <g transform="translate(13.06,56.42)">
    <g class="primitive">
      <text text-anchor="middle" dy="0.35em">48</text>
    </g>
  </g>
  <g transform="translate(25.47,15.71)">
    <g class="primitive">
      <text text-anchor="middle" dy="0.35em">49</text>
    </g>
  </g>
</g>
</svg>